<?xml version="1.0" encoding="utf-8"?>
<!-- Generator: Adobe Illustrator 21.1.0, SVG Export Plug-In . SVG Version: 6.00 Build 0)  -->
<svg version="1.1" id="Laag_1" xmlns="http://www.w3.org/2000/svg" xmlns:xlink="http://www.w3.org/1999/xlink" x="0px" y="0px"
	 viewBox="0 0 1159 453.8" style="enable-background:new 0 0 1159 453.8;" xml:space="preserve">
<style type="text/css">
	.st0{fill:#F0E527;}
	.st1{fill:#FFFFFF;}
</style>
<g>
	<g>
		<path class="st0" d="M424.3,375.3l9.8-0.9c0.5,3.9,1.5,7.2,3.2,9.7c1.7,2.5,4.3,4.6,7.9,6.1c3.6,1.6,7.6,2.3,12.1,2.3
			c4,0,7.5-0.6,10.5-1.8c3-1.2,5.3-2.8,6.8-4.9c1.5-2.1,2.2-4.3,2.2-6.7c0-2.5-0.7-4.6-2.1-6.5c-1.4-1.8-3.8-3.4-7.1-4.6
			c-2.1-0.8-6.8-2.1-14-3.8c-7.2-1.7-12.3-3.4-15.2-4.9c-3.8-2-6.6-4.4-8.4-7.3c-1.8-2.9-2.8-6.2-2.8-9.8c0-4,1.1-7.7,3.4-11.1
			c2.3-3.5,5.5-6.1,9.9-7.9c4.3-1.8,9.1-2.7,14.4-2.7c5.8,0,11,0.9,15.4,2.8c4.5,1.9,7.9,4.6,10.3,8.3c2.4,3.6,3.7,7.8,3.9,12.4
			l-10,0.8c-0.5-5-2.4-8.7-5.4-11.3c-3.1-2.5-7.7-3.8-13.7-3.8c-6.3,0-10.9,1.2-13.8,3.5c-2.9,2.3-4.3,5.1-4.3,8.3
			c0,2.8,1,5.1,3.1,7c2,1.8,7.2,3.7,15.7,5.6c8.5,1.9,14.3,3.6,17.4,5c4.6,2.1,8,4.8,10.1,8c2.2,3.2,3.3,7,3.3,11.2
			c0,4.2-1.2,8.1-3.6,11.8c-2.4,3.7-5.8,6.6-10.3,8.6c-4.5,2.1-9.5,3.1-15.2,3.1c-7.1,0-13.1-1-17.9-3.1c-4.8-2.1-8.6-5.2-11.3-9.4
			S424.5,380.5,424.3,375.3z"/>
		<path class="st0" d="M521.1,400.5v-69.3h-25.9v-9.3h62.3v9.3h-26v69.3H521.1z"/>
		<path class="st0" d="M563.1,362.2c0-13.1,3.5-23.3,10.5-30.7c7-7.4,16.1-11.1,27.1-11.1c7.3,0,13.8,1.7,19.6,5.2
			c5.8,3.5,10.3,8.3,13.3,14.5c3.1,6.2,4.6,13.2,4.6,21.1c0,8-1.6,15.1-4.8,21.4s-7.8,11.1-13.7,14.3c-5.9,3.2-12.3,4.9-19.1,4.9
			c-7.4,0-14-1.8-19.8-5.4c-5.8-3.6-10.2-8.5-13.2-14.6C564.6,375.7,563.1,369.1,563.1,362.2z M573.8,362.4c0,9.5,2.5,16.9,7.6,22.4
			c5.1,5.5,11.5,8.2,19.2,8.2c7.8,0,14.3-2.8,19.3-8.3c5.1-5.5,7.6-13.3,7.6-23.4c0-6.4-1.1-12-3.2-16.8c-2.2-4.8-5.3-8.5-9.5-11.1
			c-4.2-2.6-8.8-3.9-14-3.9c-7.4,0-13.7,2.5-19,7.6S573.8,350.6,573.8,362.4z"/>
		<path class="st0" d="M651.8,400.5v-78.6h34.9c7,0,12.3,0.7,16,2.1c3.6,1.4,6.6,3.9,8.7,7.5c2.2,3.6,3.3,7.5,3.3,11.9
			c0,5.6-1.8,10.3-5.4,14.1c-3.6,3.8-9.2,6.3-16.7,7.3c2.8,1.3,4.8,2.6,6.3,3.9c3,2.8,5.9,6.3,8.6,10.5l13.7,21.4H708l-10.4-16.4
			c-3-4.7-5.5-8.3-7.5-10.8c-2-2.5-3.7-4.3-5.3-5.3s-3.1-1.7-4.7-2.1c-1.2-0.2-3.1-0.4-5.8-0.4h-12.1v34.9H651.8z M662.2,356.6h22.4
			c4.8,0,8.5-0.5,11.2-1.5c2.7-1,4.7-2.6,6.1-4.7c1.4-2.2,2.1-4.5,2.1-7.1c0-3.7-1.4-6.8-4-9.2c-2.7-2.4-7-3.6-12.8-3.6h-24.9V356.6
			z"/>
		<path class="st0" d="M751.2,400.5v-33.3l-30.3-45.3h12.7l15.5,23.7c2.9,4.4,5.5,8.9,8,13.3c2.4-4.1,5.2-8.7,8.6-13.9l15.2-23.1
			h12.1l-31.4,45.3v33.3H751.2z"/>
		<path class="st0" d="M798.7,375.3l9.8-0.9c0.5,3.9,1.5,7.2,3.2,9.7c1.7,2.5,4.3,4.6,7.9,6.1c3.6,1.6,7.6,2.3,12.1,2.3
			c4,0,7.5-0.6,10.5-1.8c3-1.2,5.3-2.8,6.8-4.9c1.5-2.1,2.2-4.3,2.2-6.7c0-2.5-0.7-4.6-2.1-6.5c-1.4-1.8-3.8-3.4-7.1-4.6
			c-2.1-0.8-6.8-2.1-14-3.8c-7.2-1.7-12.3-3.4-15.2-4.9c-3.8-2-6.6-4.4-8.4-7.3c-1.8-2.9-2.8-6.2-2.8-9.8c0-4,1.1-7.7,3.4-11.1
			c2.3-3.5,5.5-6.1,9.9-7.9c4.3-1.8,9.1-2.7,14.4-2.7c5.8,0,11,0.9,15.4,2.8c4.4,1.9,7.9,4.6,10.3,8.3c2.4,3.6,3.7,7.8,3.9,12.4
			l-10,0.8c-0.5-5-2.4-8.7-5.4-11.3c-3.1-2.5-7.7-3.8-13.7-3.8c-6.3,0-10.9,1.2-13.8,3.5c-2.9,2.3-4.3,5.1-4.3,8.3
			c0,2.8,1,5.1,3.1,7c2,1.8,7.2,3.7,15.7,5.6c8.5,1.9,14.3,3.6,17.4,5c4.6,2.1,7.9,4.8,10.1,8c2.2,3.2,3.3,7,3.3,11.2
			c0,4.2-1.2,8.1-3.6,11.8c-2.4,3.7-5.8,6.6-10.3,8.6c-4.5,2.1-9.5,3.1-15.2,3.1c-7.1,0-13.1-1-17.9-3.1c-4.8-2.1-8.6-5.2-11.3-9.4
			S798.9,380.5,798.7,375.3z"/>
		<path class="st0" d="M895.5,400.5v-69.3h-25.9v-9.3H932v9.3h-26v69.3H895.5z"/>
		<path class="st0" d="M925.8,400.5l30.2-78.6h11.2l32.2,78.6h-11.9l-9.2-23.8h-32.9l-8.6,23.8H925.8z M948.5,368.3h26.7l-8.2-21.8
			c-2.5-6.6-4.4-12-5.6-16.3c-1,5-2.4,10-4.2,15L948.5,368.3z"/>
		<path class="st0" d="M1007.9,400.5v-78.6h34.9c7,0,12.3,0.7,16,2.1c3.6,1.4,6.6,3.9,8.7,7.5c2.2,3.6,3.3,7.5,3.3,11.9
			c0,5.6-1.8,10.3-5.4,14.1s-9.2,6.3-16.7,7.3c2.8,1.3,4.8,2.6,6.3,3.9c3,2.8,5.9,6.3,8.6,10.5l13.7,21.4h-13.1l-10.4-16.4
			c-3-4.7-5.5-8.3-7.5-10.8c-2-2.5-3.7-4.3-5.3-5.3c-1.6-1-3.1-1.7-4.7-2.1c-1.2-0.2-3.1-0.4-5.8-0.4h-12.1v34.9H1007.9z
			 M1018.3,356.6h22.4c4.8,0,8.5-0.5,11.2-1.5c2.7-1,4.7-2.6,6.1-4.7c1.4-2.2,2.1-4.5,2.1-7.1c0-3.7-1.4-6.8-4-9.2
			c-2.7-2.4-7-3.6-12.8-3.6h-24.9V356.6z"/>
	</g>
</g>
<path class="st1" d="M379.8,164.8c12.4-17.2,20.8-36.6,24.6-56.6c1.9-9.9,2.9-20.2,2.2-29.7c-0.7-9.5-3-18.4-7.5-24.8
	c-8.4-12.2-28.3-18.1-46.2-18.3c-18.3-0.1-36.9,5.2-53.2,14.5C283.6,59.1,269.5,72.4,258,88c-11.5,15.6-20.8,33.3-28.2,52
	c-3.8,9.3-6.6,18-8.3,26.8c-1.7,8.7-2.2,17.2-0.9,23.9c0.5,3.4,1.6,6.3,2.9,8.8c1.2,2.5,2.9,4.5,4.8,6.4c3.8,3.5,9.6,6.5,18,8.9
	c8.2,2.4,18.2,4,29.3,6.1c5.5,1,11.9,2.5,17.8,4.3c6,1.8,11.9,3.8,17.8,6.3c11.7,4.9,23.3,11.3,33.9,20c10.6,8.6,20.1,20,26.7,33.1
	c6.4,13.3,9.9,28.5,9.2,43.1c-0.6,14.7-4.5,28.4-10.3,40.6c-11.7,24.4-30.1,43.2-51.7,56.9c-5.4,3.4-11.3,6.4-17,9
	c-5.7,2.5-11.6,4.7-17.5,6.5c-11.9,3.6-24.2,5.8-36.6,6.5c-24.7,1.3-50.5-3.6-72.3-16.6c-10.9-6.4-20.5-14.9-28.2-24.5
	c-7.8-9.6-13.8-20.5-17.3-32.3c-3.5-11.7-4.9-24-3-35.9c1.8-11.9,6.8-23,14.1-31.7l4.7,2.9c-3.9,9.7-5.3,19.8-4.4,29.5
	c1,9.6,3.9,18.8,8.6,27c4.7,8.2,10.6,15.6,17.6,21.6c7,6.1,14.9,10.7,23.1,14.1c33.1,13.5,74.5,5.2,103-14.6
	c14.2-10,26.2-24,32.7-38.7c3.2-7.4,4.9-14.8,4.9-21.7c0-6.9-1.5-13.2-4.4-19.3c-6.1-11.9-19.1-22.3-35.3-29.1
	c-4-1.8-8.2-3.2-12.6-4.6c-4.4-1.3-8.5-2.3-13.5-3.5c-9.9-2.2-21.2-4.2-33.6-8.1c-6.2-2-12.7-4.5-19.2-8.1
	c-6.5-3.6-13-8.4-18.5-14.3c-11.3-11.7-17.8-27.8-19.3-42.2c-1.8-14.6,0.2-27.9,3.2-40.1c3-12.2,7.5-23.8,12.5-34.2
	c9.7-20.7,21.7-40.9,36.9-59.1c15.2-18.1,33.9-34.2,56-45c21.9-10.5,46.5-16.2,71.2-13.8c12.4,1.2,24.5,4.5,35.9,9.8
	c5.7,2.7,11.4,6.1,16.5,10.6c5.2,4.4,9.7,10,13,16.1c6.4,12.3,8,25.3,7.2,37.2c-0.8,12-3.4,23.2-7.1,34c-7.5,21.5-20,41-36.3,56
	L379.8,164.8z"/>
<path class="st1" d="M9.3,321.1c12.3,1.1,24.6,0.9,36.6-0.6c12-1.3,23.9-3.9,35.5-7.2c23.3-6.5,45.8-15.9,68.2-26.2
	c45.1-20.4,89.3-43.1,135.1-64.3c45.8-21.2,93.4-41,143.9-54.4c25.2-6.7,51.1-12,77.5-14.6c26.4-2.9,53.4-3.4,80.1-0.6
	c13.4,1,26.4,3.2,39.5,5.3c12.8,2.7,25.7,5.1,38.2,8.4c25.2,6,49.5,13.5,73.4,20.8c24,7.2,47.5,14.8,70.9,20.8
	c23.4,6.2,46.8,11.6,70.2,14.1c5.9,1,11.7,1.3,17.5,1.6c5.8,0.3,11.7,1,17.5,0.7c5.8-0.1,11.7,0,17.5-0.2l17.3-1.7
	c23.1-2.5,46-9.2,68.7-17.6c45.5-17.4,89.3-41,131.1-68.4l3.5,4.3c-17.9,17.8-37.3,34.3-57.9,49.3c-10.2,7.6-20.8,14.8-31.7,21.5
	c-10.8,6.8-21.9,13.3-33.4,19.3c-11.5,6.1-23.4,11.5-35.7,16.2c-12.3,4.7-25.1,8.9-38.3,11.5c-26.2,6.3-53.2,7.3-79.7,6.4
	c-26.6-1-52.4-5.3-77.7-10.3c-25.3-5.2-49.9-11.5-74.1-17.9c-24.2-6.4-48-12.7-71.6-17.9c-23.6-5.3-47.1-9.5-70.2-11.3
	c-46.1-4.3-93.2,1.8-139.8,12.6c-46.6,11.1-92.7,27.5-139.1,45c-46.4,17.6-93.4,36.1-142,51c-24.4,7.3-49.6,13.8-75.4,16.8
	c-13,1.3-26,1.7-39,0.9c-13-1.1-25.8-3.4-38-7.6L9.3,321.1z"/>
<g>
	<path class="st0" d="M1079.3,334.4V324h-3.9v-1.4h9.3v1.4h-3.9v10.4H1079.3z"/>
	<path class="st0" d="M1086.3,334.4v-11.8h2.3l2.8,8.4c0.3,0.8,0.4,1.4,0.6,1.7c0.1-0.4,0.3-1.1,0.6-1.9l2.8-8.2h2.1v11.8h-1.5v-9.9
		l-3.4,9.9h-1.4l-3.4-10v10H1086.3z"/>
</g>
</svg>
